<?xml version="1.0" standalone="no"?><svg xmlns="http://www.w3.org/2000/svg" viewBox="0 0 1440 320"><path fill="#1d5599" fill-opacity="0.9" d="M0,0L34.3,37.3C68.6,75,137,149,206,197.3C274.3,245,343,267,411,245.3C480,224,549,160,617,128C685.7,96,754,96,823,117.3C891.4,139,960,181,1029,181.3C1097.1,181,1166,139,1234,128C1302.9,117,1371,139,1406,149.3L1440,160L1440,320L1405.7,320C1371.4,320,1303,320,1234,320C1165.7,320,1097,320,1029,320C960,320,891,320,823,320C754.3,320,686,320,617,320C548.6,320,480,320,411,320C342.9,320,274,320,206,320C137.1,320,69,320,34,320L0,320Z"></path></svg>